<svg xmlns="http://www.w3.org/2000/svg" xmlns:xlink="http://www.w3.org/1999/xlink"
    xmlns:sketch="http://www.bohemiancoding.com/sketch/ns" viewBox="0 0 100 125" version="1.1" x="0px" y="0px">
    <title>Curly Bracket-11</title>
    <desc>Created with Sketch.</desc>
    <g stroke="none" stroke-width="1" fill="none" fill-rule="evenodd" sketch:type="MSPage">
        <path
            d="M57.1071326,45.4398402 C53.7493767,41.9120848 53.8634137,35.9230309 53.9024819,35.0049275 L53.9024819,18.3344088 C53.9024819,13.2259739 52.0625796,9.51502015 48.4350417,7.30396959 C45.4056702,5.45720386 41.8768588,5.06599363 40,5 L40,10.8750169 C45.4399869,11.7049527 48.6229916,14.903268 48.6229916,19.6864863 L48.6229916,40.38684 C48.6229916,43.5735404 50.2390436,46.5004898 52.9458383,48.2163242 L55.7598067,50.000264 L52.9458383,51.7836758 C50.2385156,53.4995102 48.6229916,56.4264596 48.6229916,59.61316 L48.6229916,80.3135137 C48.6229916,85.0972599 45.4399869,88.2950473 40,89.1255111 L40,95 C41.8768588,94.9340064 45.4056702,94.5422682 48.4355697,92.6955025 C52.0631075,90.4849798 53.9024819,86.7740261 53.9024819,81.6655912 L53.9024819,64.9956004 C53.8634137,64.0769691 53.7493767,58.0879152 57.1071326,54.5601598 C58.1614468,53.4530507 59.4638971,52.7049469 60.9416264,52.3459415 L60.9416264,47.6540585 C59.4633691,47.2950531 58.1614468,46.5469493 57.1071326,45.4398402"
            fill="#000000" sketch:type="MSShapeGroup"
            transform="translate(50.470813, 50.000000) scale(-1, 1) translate(-50.470813, -50.000000) " />
    </g>
</svg>